<?xml version="1.0" encoding="iso-8859-1"?>
<!-- Generator: Adobe Illustrator 18.0.0, SVG Export Plug-In . SVG Version: 6.00 Build 0)  -->
<!DOCTYPE svg PUBLIC "-//W3C//DTD SVG 1.1//EN" "http://www.w3.org/Graphics/SVG/1.1/DTD/svg11.dtd">
<svg version="1.1" id="Capa_1" xmlns="http://www.w3.org/2000/svg" xmlns:xlink="http://www.w3.org/1999/xlink" x="0px" y="0px"
	 viewBox="0 0 401.845 401.845" style="enable-background:new 0 0 401.845 401.845;" xml:space="preserve">
<g>
	<path d="M221.272,20c41.815,0,104.791,17.009,104.791,116.37c0,110.642-44.192,154.824-60.641,222.756
		c-3.949,16.309-13.7,22.719-23.771,22.719c-10.618,0-21.591-7.131-26.479-17.308c-9.166-19.083-4.5-76.583-4.5-76.583
		c2.834-29.334-7.666-48.5-19.525-49.646c-0.608-0.059-10.7-0.078-23.892-0.078c-26.379,0-65.136,0.078-65.136,0.078
		c-13.515,0-24.472-10.956-24.472-24.471c0-12.401,9.212-24.146,21.188-24.146c0.045-0.008,31.957-0.023,31.957-0.023
		s0.089,0.014,0.135,0.014h8.617c2.201,0,3.985-1.784,3.985-3.985c0-2.2-1.784-3.984-3.985-3.984H99.849
		c-13.328-0.218-24.067-11.083-24.067-24.464c0-13.515,10.957-24.472,24.473-24.472l40.221-0.02c2.168,0,3.925-1.757,3.925-3.925
		c0-2.166-1.757-3.923-3.925-3.923l-34.014,0.008c-12.305,0-20.894-11.957-20.894-24.256c0-13.517,10.956-24.422,24.472-24.422
		l32.937,0.001c2.109,0,3.819-1.71,3.819-3.819s-2.71-3.868-4.819-3.868l-21.365,0.014c-11.19,0-19.771-12.108-19.771-24.017
		c0-13.515,10.957-24.372,24.472-24.372L221.272,20 M221.272,0h-0.018h-0.019l-95.96,0.178c-24.485,0-44.434,19.905-44.434,44.372
		c0,6.588,1.497,13.278,4.246,19.358c-11.771,8-19.518,21.49-19.518,36.753c0,8.32,2.132,16.111,5.837,22.767
		c-9.555,8.163-15.623,20.296-15.623,33.82c0,10.831,3.859,21.095,10.92,29.189c-5.858,7.876-9.055,17.499-9.055,27.4
		c0,24.521,19.95,44.471,44.472,44.471c0.428-0.001,39.08-0.078,65.136-0.078c10.764,0,16.542,0.014,19.641,0.028
		c1.948,3.143,5.391,12.023,3.87,27.772l-0.015,0.153l-0.013,0.153c-0.05,0.619-1.231,15.369-1.252,32.728
		c-0.042,34.14,4.351,47.245,7.659,54.132c8.232,17.137,26.118,28.648,44.508,28.648c16.439,0,36.423-9.985,43.209-38.012
		c5.229-21.595,13.708-41.133,22.685-61.818c18.054-41.599,38.517-88.749,38.517-165.645c0-50.367-14.894-87.747-44.269-111.101
		C281.001,8.738,253.157,0,221.272,0L221.272,0z"/>
</g>
<g>
</g>
<g>
</g>
<g>
</g>
<g>
</g>
<g>
</g>
<g>
</g>
<g>
</g>
<g>
</g>
<g>
</g>
<g>
</g>
<g>
</g>
<g>
</g>
<g>
</g>
<g>
</g>
<g>
</g>
</svg>
